<svg xmlns="http://www.w3.org/2000/svg" width="733.4" height="424.227" viewBox="0 0 733.4 424.227">
    <defs>
        <clipPath id="hvuw7vk0aa">
            <path data-name="Rectangle 36" style="fill:none" d="M0 0h178.4v72.362H0z"/>
        </clipPath>
        <clipPath id="tr5m328p2b">
            <path data-name="Path 444" d="M0 0h253.8v89.622H0z" style="fill:none"/>
        </clipPath>
        <clipPath id="wkgjvjvgmc">
            <path data-name="Rectangle 37" style="fill:none" d="M0 0h243.227v89.616H0z"/>
        </clipPath>
        <clipPath id="u9rawpa7md">
            <path data-name="Rectangle 81" style="fill:none" d="M0 0h429.541v400.771H0z"/>
        </clipPath>
        <clipPath id="m2nfp56t7e">
            <path data-name="Rectangle 74" style="fill:none" d="M0 0h429.542v400.771H0z"/>
        </clipPath>
        <clipPath id="wcq0n6j6kf">
            <path data-name="Path 813" d="M169.265 257.039z" style="fill:none"/>
        </clipPath>
        <clipPath id="jicyuik9gg">
            <path data-name="Path 815" d="M168 266.408z" style="fill:none"/>
        </clipPath>
        <clipPath id="mzsgd749ph">
            <path data-name="Path 817" d="M166.734 275.777z" style="fill:none"/>
        </clipPath>
        <clipPath id="hzy5sjv62i">
            <path data-name="Path 819" d="M165.469 285.147z" style="fill:none"/>
        </clipPath>
        <clipPath id="182zlqccij">
            <path data-name="Rectangle 78" transform="translate(334.343 221.243)" style="fill:none" d="M0 0h49.434v146.644H0z"/>
        </clipPath>
        <clipPath id="y9apulp8xk">
            <path data-name="Rectangle 79" transform="translate(308.751 261.715)" style="fill:none" d="M0 0h17.854v100.876H0z"/>
        </clipPath>
    </defs>
    <g data-name="illustration UBA">
        <g data-name="illustration deeption">
            <g data-name="Group 127">
                <g data-name="Group 105">
                    <g data-name="Group 100">
                        <g data-name="Group 97">
                            <g data-name="Group 96" style="clip-path:url(#hvuw7vk0aa)" transform="translate(0 6.113)">
                                <path data-name="Line 26" transform="translate(87.862 70.639)" style="stroke-miterlimit:10;stroke-linecap:round;stroke:#e2e0e5;stroke-width:4px;fill:none" d="M59.872 0H0"/>
                                <path data-name="Line 27" transform="translate(1.787 64.045)" style="stroke-miterlimit:10;stroke-linecap:round;stroke:#e2e0e5;stroke-width:4px;fill:none" d="M17.677 0H0"/>
                            </g>
                        </g>
                        <path data-name="Path 329" d="M126.068 68.656H60.957" transform="translate(-2.158 -3.413)" style="stroke-miterlimit:10;stroke-linecap:round;stroke:#e2e0e5;stroke-width:4px;fill:none"/>
                        <g data-name="Group 99">
                            <g data-name="Group 98" style="clip-path:url(#hvuw7vk0aa)" transform="translate(0 6.113)">
                                <path data-name="Path 330" d="M18.768 55.733a18.048 18.048 0 0 0 12.912 2.681 17.61 17.61 0 0 0 11.183-6.769 16.4 16.4 0 0 0 3.093-12.372A16.773 16.773 0 0 0 39.2 28.335" transform="translate(115.47 -3.931)" style="stroke-miterlimit:10;stroke-linecap:round;stroke:#e2e0e5;stroke-width:4px;fill:none"/>
                                <path data-name="Path 331" d="M88.327 43.97a40.257 40.257 0 0 0-3.171-16.032 41.5 41.5 0 0 0-9.329-13.622A43.3 43.3 0 0 0 61.771 5.2a44.68 44.68 0 0 0-33.22 0A43.3 43.3 0 0 0 14.5 14.316a41.492 41.492 0 0 0-9.33 13.622A40.258 40.258 0 0 0 2 43.97" transform="translate(88.283 -.277)" style="stroke-miterlimit:10;stroke-linecap:round;stroke:#e2e0e5;stroke-width:4px;fill:none"/>
                                <path data-name="Path 332" d="M135.014 34.6a24.108 24.108 0 0 0-12.122-5.162 24.473 24.473 0 0 0-13.1 1.927 23.419 23.419 0 0 0-9.971 8.412 22.09 22.09 0 0 0-3.551 14.978" transform="translate(-42.526 -4.057)" style="stroke-miterlimit:10;stroke-linecap:round;stroke:#e2e0e5;stroke-width:4px;fill:none"/>
                                <path data-name="Path 333" d="M173.175 66.465a19.206 19.206 0 0 0-8.23-10.541 20.445 20.445 0 0 0-13.357-2.9 20.09 20.09 0 0 0-12.126 6.126 18.747 18.747 0 0 0-5.121 12.234" transform="translate(-114.865 -7.334)" style="stroke-miterlimit:10;stroke-linecap:round;stroke:#e2e0e5;stroke-width:4px;fill:none"/>
                            </g>
                        </g>
                    </g>
                </g>
                <g data-name="Group 125">
                    <g data-name="Group 100">
                        <g data-name="Group 97">
                            <g data-name="Mask Group 4" style="clip-path:url(#tr5m328p2b)" transform="translate(479.6 39.54)">
                                <path data-name="Line 27" transform="translate(226.108 79.317)" style="stroke-miterlimit:10;stroke-linecap:round;stroke:#e2e0e5;stroke-width:4px;fill:none" d="M0 0h25.148"/>
                            </g>
                        </g>
                        <path data-name="Path 329" d="M60.958 68.656h77.553" transform="translate(524.846 44.114)" style="stroke-miterlimit:10;stroke-linecap:round;stroke:#e2e0e5;stroke-width:4px;fill:none"/>
                        <g data-name="Group 99">
                            <g data-name="Group 98" style="clip-path:url(#wkgjvjvgmc)" transform="translate(490.172 39.54)">
                                <path data-name="Path 330" d="M51.368 62.266a20.88 20.88 0 0 1-24.339-33.934" transform="translate(31.961 1.889)" style="stroke-miterlimit:10;stroke-linecap:round;stroke:#e2e0e5;stroke-width:4px;fill:none"/>
                                <path data-name="Path 331" d="M2 54a51.416 51.416 0 1 1 102.831 0" transform="translate(30.853 .106)" style="stroke-miterlimit:10;stroke-linecap:round;stroke:#e2e0e5;stroke-width:4px;fill:none"/>
                                <path data-name="Path 332" d="M96.107 35.876a28.19 28.19 0 0 1 46.345 21.592 28.5 28.5 0 0 1-.2 3.363" transform="translate(36.952 1.948)" style="stroke-miterlimit:10;stroke-linecap:round;stroke:#e2e0e5;stroke-width:4px;fill:none"/>
                                <path data-name="Path 333" d="M134.341 69.709a23.635 23.635 0 0 1 46.258 6.1" transform="translate(39.43 3.521)" style="stroke-miterlimit:10;stroke-linecap:round;stroke:#e2e0e5;stroke-width:4px;fill:none"/>
                            </g>
                        </g>
                    </g>
                </g>
            </g>
            <g data-name="Group 181">
                <g data-name="Group 179">
                    <g data-name="Group 178">
                        <path d="M0 10.87a13.031 13.031 0 0 1 21.321-7.741" transform="rotate(19 182.813 1543.577)" style="stroke:#1e202c;stroke-width:3px;stroke-linecap:round;fill:none"/>
                        <path data-name="Vector" d="M0 12.878A12.883 12.883 0 0 1 18.524 1.3" transform="rotate(19 201.372 1612.555)" style="stroke:#1e202c;stroke-width:3px;stroke-linecap:round;fill:none"/>
                    </g>
                </g>
                <g data-name="Group 180">
                    <g data-name="Group 178">
                        <path data-name="Vector" d="M0 6.879a8.249 8.249 0 0 1 13.5-4.9" transform="rotate(19 260.2 1617.91)" style="stroke:#1e202c;stroke-width:3px;stroke-linecap:round;fill:none"/>
                        <path data-name="Vector" d="M0 8.151A8.154 8.154 0 0 1 11.725.824" transform="rotate(19 271.95 1661.573)" style="stroke:#1e202c;stroke-width:3px;stroke-linecap:round;fill:none"/>
                    </g>
                </g>
            </g>
        </g>
        <g data-name="Group 186">
            <g data-name="Group 229" style="clip-path:url(#u9rawpa7md)" transform="translate(136 23.456)">
                <g data-name="Group 206">
                    <g data-name="Group 205" style="clip-path:url(#m2nfp56t7e)">
                        <path data-name="Path 727" d="M237.921 319.279H86.778a10.153 10.153 0 0 1-10.305-11.756l37.216-294.006A13.765 13.765 0 0 1 126.97 1.761L270.526.085c16.478 0 18.714 6.94 17.892 13.432L251.2 307.523a13.764 13.764 0 0 1-13.281 11.756"/>
                        <path data-name="Path 728" d="M228.826 319.279H77.683a10.174 10.174 0 0 1-10.305-11.793l37.216-294.942A13.78 13.78 0 0 1 117.875.751h151.143a10.174 10.174 0 0 1 10.3 11.793l-37.211 294.942a13.78 13.78 0 0 1-13.281 11.793" style="fill:#f7f7f7"/>
                        <path data-name="Path 729" d="M228.826 319.279H77.683a10.174 10.174 0 0 1-10.305-11.793l37.216-294.942A13.78 13.78 0 0 1 117.875.751h151.143a10.174 10.174 0 0 1 10.3 11.793l-37.211 294.942a13.78 13.78 0 0 1-13.281 11.793z" style="stroke:#1f212b;stroke-width:1.5px;stroke-miterlimit:10;fill:none"/>
                        <path data-name="Path 730" d="M230.326 311.02H78.371a2.779 2.779 0 0 1-2.122-.927 2.815 2.815 0 0 1-.659-2.252l.4.051-.4-.051 35.534-281.62a3.6 3.6 0 0 1 3.469-3.077h151.956a2.777 2.777 0 0 1 2.121.927 2.814 2.814 0 0 1 .66 2.252l-35.53 281.62a3.6 3.6 0 0 1-3.469 3.077M114.593 23.955a2.769 2.769 0 0 0-2.664 2.368l-35.534 281.62a2.013 2.013 0 0 0 .462 1.613 1.98 1.98 0 0 0 1.514.653h151.955a2.769 2.769 0 0 0 2.664-2.368l35.535-281.62a2.02 2.02 0 0 0-.463-1.614 1.98 1.98 0 0 0-1.513-.652z"/>
                        <path data-name="Path 731" d="M191.554 16.157a4.262 4.262 0 0 1-3.254-1.419 4.326 4.326 0 0 1-1.009-3.456 5.585 5.585 0 0 1 5.378-4.772 4.261 4.261 0 0 1 3.254 1.419 4.322 4.322 0 0 1 1.009 3.455 5.585 5.585 0 0 1-5.378 4.773m1.115-8.836a4.752 4.752 0 0 0-4.573 4.063 3.521 3.521 0 0 0 .813 2.817 3.459 3.459 0 0 0 2.645 1.144 4.751 4.751 0 0 0 4.573-4.063 3.524 3.524 0 0 0-.812-2.817 3.462 3.462 0 0 0-2.646-1.144"/>
                        <path data-name="Path 732" d="M228.826 319.684H77.683a10.708 10.708 0 0 1-8.178-3.558 10.866 10.866 0 0 1-2.529-8.692l.478-3.792a.406.406 0 1 1 .805.1l-.478 3.793a10.071 10.071 0 0 0 2.332 8.054 9.91 9.91 0 0 0 7.57 3.283h151.143a13.379 13.379 0 0 0 12.874-11.439l4.473-35.452a.406.406 0 1 1 .8.1l-4.473 35.451a14.215 14.215 0 0 1-13.684 12.148"/>
                        <path data-name="Path 733" d="M43.326 305.281a.391.391 0 0 1-.172-.038 57.572 57.572 0 0 1-21.4-16.188.406.406 0 0 1 .62-.523A56.847 56.847 0 0 0 43.5 304.508a.4.4 0 0 1-.172.773"/>
                        <path data-name="Path 734" d="M32.985 305.465a.4.4 0 0 1-.2-.052c-3.745-2.09-16.391-9.724-21.9-20.217a.405.405 0 1 1 .718-.377C17 295.113 29.482 302.643 33.177 304.7a.406.406 0 0 1-.2.76"/>
                        <path data-name="Path 735" d="M5.046 279.817a4.032 4.032 0 1 1 4.032-4.032 4.032 4.032 0 0 1-4.032 4.032m0-7.253a3.221 3.221 0 1 0 3.221 3.221 3.221 3.221 0 0 0-3.221-3.221"/>
                        <path data-name="Path 736" d="M27.794 88.63a.4.4 0 0 1-.406-.4v-3.152a.406.406 0 0 1 .812 0v3.147a.4.4 0 0 1-.406.4"/>
                        <path data-name="Path 737" d="M27.794 95.961a.406.406 0 0 1-.406-.406v-3.147a.406.406 0 0 1 .812 0v3.147a.406.406 0 0 1-.406.406"/>
                        <path data-name="Path 738" d="M25.7 90.722h-3.145a.406.406 0 0 1 0-.811H25.7a.405.405 0 1 1 0 .811"/>
                        <path data-name="Path 739" d="M33.033 90.722h-3.148a.406.406 0 0 1 0-.811h3.148a.405.405 0 1 1 0 .811"/>
                        <path data-name="Path 740" d="M300.62 97.331a.406.406 0 0 1-.406-.406v-3.147a.406.406 0 0 1 .812 0v3.147a.406.406 0 0 1-.406.406"/>
                        <path data-name="Path 741" d="M300.62 104.662a.406.406 0 0 1-.406-.406v-3.147a.406.406 0 1 1 .812 0v3.147a.406.406 0 0 1-.406.406"/>
                        <path data-name="Path 742" d="M298.528 99.423h-3.147a.405.405 0 0 1 0-.811h3.147a.406.406 0 0 1 0 .811"/>
                        <path data-name="Path 743" d="M305.859 99.423h-3.147a.405.405 0 0 1 0-.811h3.147a.406.406 0 0 1 0 .811"/>
                        <path data-name="Path 744" d="M32.042 75.415a.4.4 0 0 1-.364-.584c5.837-11.957 16.391-29.37 40.549-42.484a.406.406 0 1 1 .387.713c-23.954 13-34.419 30.27-40.207 42.127a.406.406 0 0 1-.365.228"/>
                        <path data-name="Path 745" d="M23.5 74.372a.413.413 0 0 1-.18-.042.406.406 0 0 1-.183-.544 126.979 126.979 0 0 1 14.812-21.844c9-10.824 23.98-25.366 44.267-33.172a.406.406 0 0 1 .291.757c-20.124 7.743-35 22.183-43.934 32.934A126.031 126.031 0 0 0 23.86 74.147a.408.408 0 0 1-.364.225"/>
                        <path data-name="Path 746" d="m220.98 38.869-130.316-.722a10.658 10.658 0 0 0-10.407 8.942l-18.744 140.44a7.84 7.84 0 0 0 8.007 9.045l130.316.722a10.658 10.658 0 0 0 10.407-8.942l18.744-140.441a7.839 7.839 0 0 0-8.007-9.044" style="fill:#f7f7f7"/>
                        <path data-name="Path 747" d="M224.356 80.015a.39.39 0 0 1-.059 0 .407.407 0 0 1-.343-.46l4.631-31.7a7.489 7.489 0 0 0-1.71-6 7.725 7.725 0 0 0-5.9-2.578l-54.183-.3a.406.406 0 0 1 0-.811l54.183.3a8.53 8.53 0 0 1 6.505 2.857 8.294 8.294 0 0 1 1.9 6.647l-4.632 31.7a.406.406 0 0 1-.4.347"/>
                        <path data-name="Path 748" d="M221.018 54.044 86.8 53.3a.406.406 0 1 1 .006-.811l134.211.744a.406.406 0 0 1 0 .811"/>
                        <path data-name="Path 749" d="M89.919 47.779H89.9a2.484 2.484 0 0 1-1.893-.837A2.421 2.421 0 0 1 87.45 45a3.155 3.155 0 0 1 3.058-2.645h.015a2.486 2.486 0 0 1 1.894.836 2.424 2.424 0 0 1 .559 1.943 3.155 3.155 0 0 1-3.057 2.645m.588-4.612a2.321 2.321 0 0 0-2.253 1.94 1.626 1.626 0 0 0 .368 1.3 1.684 1.684 0 0 0 1.286.557 2.3 2.3 0 0 0 2.264-1.941 1.623 1.623 0 0 0-.367-1.3 1.682 1.682 0 0 0-1.286-.557h-.012m2.067 1.913z"/>
                        <path data-name="Path 750" d="M99.362 47.832h-.016A2.484 2.484 0 0 1 97.453 47a2.421 2.421 0 0 1-.56-1.942 3.155 3.155 0 0 1 3.058-2.645h.015a2.486 2.486 0 0 1 1.894.836 2.427 2.427 0 0 1 .559 1.943 3.155 3.155 0 0 1-3.057 2.645m.588-4.612a2.321 2.321 0 0 0-2.25 1.941 1.625 1.625 0 0 0 .368 1.3 1.684 1.684 0 0 0 1.286.557 2.324 2.324 0 0 0 2.264-1.941 1.623 1.623 0 0 0-.367-1.3 1.682 1.682 0 0 0-1.286-.557h-.015m2.067 1.913z"/>
                        <path data-name="Path 751" d="M108.805 47.884h-.016a2.486 2.486 0 0 1-1.893-.837 2.42 2.42 0 0 1-.559-1.942 3.154 3.154 0 0 1 3.063-2.645h.015a2.483 2.483 0 0 1 1.893.836 2.427 2.427 0 0 1 .559 1.943 3.154 3.154 0 0 1-3.057 2.645m.589-4.612a2.322 2.322 0 0 0-2.254 1.941 1.628 1.628 0 0 0 .368 1.3 1.684 1.684 0 0 0 1.287.557 2.311 2.311 0 0 0 2.264-1.941 1.628 1.628 0 0 0-.368-1.3 1.683 1.683 0 0 0-1.285-.557h-.012m2.067 1.913z"/>
                        <path data-name="Path 752" d="m222.064 46.2-13.3-.074a.406.406 0 1 1 0-.811l13.3.074a.406.406 0 0 1 0 .811"/>
                        <path data-name="Path 753" d="m202.784 46.1-55.084-.308a.406.406 0 0 1-.4-.408.42.42 0 0 1 .408-.4l55.085.306a.406.406 0 0 1 0 .811"/>
                        <path data-name="Path 754" d="m133.219 45.711-11.725-.065a.406.406 0 0 1-.4-.408.424.424 0 0 1 .408-.4l11.725.065a.406.406 0 0 1 0 .811"/>
                        <path data-name="Path 755" d="M70.938 117.325a.327.327 0 0 1-.054 0 .406.406 0 0 1-.349-.455l9.32-69.831a11.082 11.082 0 0 1 10.812-9.294l53.372.3a.406.406 0 0 1 0 .811l-53.372-.3a10.262 10.262 0 0 0-10 8.59l-9.327 69.827a.407.407 0 0 1-.4.352"/>
                        <path data-name="Path 756" d="M129.571 108.011a4.1 4.1 0 1 1-4.1-4.1 4.1 4.1 0 0 1 4.1 4.1" style="fill:#fa389e"/>
                        <path data-name="Path 757" d="M174.2 150.817a4.1 4.1 0 1 1-4.1-4.1 4.1 4.1 0 0 1 4.1 4.1" style="fill:#fa389e"/>
                        <path data-name="Path 758" d="M141.861 179.507a55.338 55.338 0 1 1 32.3-100.28.713.713 0 0 1-.831 1.159 54.148 54.148 0 1 0 7.814 6.877l-.661-.7-10.2 10.195.61.66a39.479 39.479 0 0 1 2.867 50.016l-.363.5.312.53a4.234 4.234 0 0 1-5.556 5.925l-.548-.277-.473.393a39.477 39.477 0 1 1-3.2-63.068.712.712 0 0 1-.4 1.3.7.7 0 0 1-.4-.122 38.057 38.057 0 1 0 2.86 60.97l.57-.467-.323-.664a4.239 4.239 0 0 1 3.812-6.091 4.19 4.19 0 0 1 1.6.317l.683.281.431-.6a38.057 38.057 0 0 0-2.837-47.879l-.661-.721-10.2 10.207.577.658a23.621 23.621 0 1 1-37.488 2.517l.3-.452-.244-.485a4.192 4.192 0 0 1-.45-1.9 4.243 4.243 0 0 1 4.238-4.233 4.179 4.179 0 0 1 1.893.449l.484.244.452-.3a23.652 23.652 0 0 1 23.465-1.492.715.715 0 0 1-.317 1.356.7.7 0 0 1-.315-.074 22.224 22.224 0 0 0-21.482 1.044l-.71.441.359.756a4.183 4.183 0 0 1 .411 1.816 4.243 4.243 0 0 1-4.24 4.235 4.185 4.185 0 0 1-1.817-.41l-.756-.361-.441.712a22.2 22.2 0 1 0 35.733-2.748l-.658-.766-10.209 10.21.433.64a7.759 7.759 0 1 1-2.082-2.084l.641.435 33.126-33.125a.713.713 0 0 1 1.01 0 55.326 55.326 0 0 1-39.119 94.455m28.192-31.718a2.812 2.812 0 1 0 2.811 2.812 2.812 2.812 0 0 0-2.811-2.812m-28.192-29.955a6.335 6.335 0 1 0 6.335 6.335 6.335 6.335 0 0 0-6.335-6.335M126 105.5a2.811 2.811 0 1 0 2.81 2.81 2.811 2.811 0 0 0-2.81-2.81"/>
                        <path data-name="Path 759" d="m92.84 124.7-72.506-.4a7.489 7.489 0 0 0-7.313 6.283L.462 224.68a5.508 5.508 0 0 0 5.626 6.355l72.506.4a7.49 7.49 0 0 0 7.313-6.284l12.559-94.1a5.508 5.508 0 0 0-5.626-6.351" style="fill:#f7f7f7"/>
                        <path data-name="Path 760" d="m30.59 214.667-18.613-.1 7.974-59.745 18.613.1z"/>
                        <path data-name="Path 761" d="m53.848 214.8-18.613-.1 10.174-76.232 18.613.1z"/>
                        <path data-name="Path 762" d="m77.107 214.925-18.613-.1 4.754-35.625 18.613.1z"/>
                        <path data-name="Path 763" d="m45.1 231.656-7.347-.041a.406.406 0 0 1 0-.811l7.347.041a.406.406 0 0 1 0 .811"/>
                        <path data-name="Path 764" d="m37.751 231.616-31.666-.176a6.107 6.107 0 0 1-4.661-2.048 5.948 5.948 0 0 1-1.365-4.766l12.559-94.1a7.928 7.928 0 0 1 7.717-6.636l72.507.4a6.108 6.108 0 0 1 4.66 2.049 5.948 5.948 0 0 1 1.366 4.766L90.314 195.2a.406.406 0 0 1-.805-.107L98.064 131a5.144 5.144 0 0 0-1.174-4.125 5.3 5.3 0 0 0-4.053-1.77l-72.506-.4a7.071 7.071 0 0 0-6.909 5.931L.863 224.733a5.148 5.148 0 0 0 1.173 4.126 5.31 5.31 0 0 0 4.053 1.77l31.664.176a.406.406 0 0 1 0 .811"/>
                        <path data-name="Path 765" d="M218.436 245.72a5.057 5.057 0 0 1 5.178 5.837l-5.34 40.012a6.909 6.909 0 0 1-6.73 5.794l-147.252-.527A5.058 5.058 0 0 1 59.113 291l5.341-40.012a6.909 6.909 0 0 1 6.73-5.8z" style="fill:#f7f7f7"/>
                        <path data-name="Path 766" d="M211.566 297.769h-.024l-147.252-.526a5.643 5.643 0 0 1-4.314-1.889 5.494 5.494 0 0 1-1.265-4.407l5.341-40.013a7.335 7.335 0 0 1 7.11-6.145h.024l147.251.526a5.643 5.643 0 0 1 4.315 1.888 5.5 5.5 0 0 1 1.265 4.408l-5.341 40.013a7.335 7.335 0 0 1-7.11 6.145M71.162 245.6a6.5 6.5 0 0 0-6.306 5.442l-5.34 40.013a4.69 4.69 0 0 0 1.071 3.766 4.841 4.841 0 0 0 3.706 1.61l147.252.527h.021a6.5 6.5 0 0 0 6.306-5.442l5.34-40.013a4.69 4.69 0 0 0-1.071-3.766 4.842 4.842 0 0 0-3.707-1.61L71.183 245.6h-.021"/>
                        <path data-name="Path 767" d="M314.614 357.18c-1.271-.149 2.38 28.583 2.38 28.583l-12.154.594-4.331-32.346z" style="fill:#fff"/>
                        <path data-name="Path 768" d="m301.252 354.822 4.135 30.878 10.9-.533c-.238-1.9-.933-7.549-1.535-13.221-1.023-9.638-1.122-13.022-.974-14.31z" style="fill:#f7f7f7"/>
                        <path data-name="Path 769" d="m301.252 354.822 4.135 30.878 10.9-.533c-.238-1.9-.933-7.549-1.535-13.221-1.023-9.638-1.122-13.022-.974-14.31z" style="stroke:#1f212b;stroke-width:1.5px;stroke-miterlimit:10;fill:none"/>
                        <path data-name="Path 770" d="M305.078 380.419a2.749 2.749 0 0 0-.539.085c-2.462.638-9.038 5.4-13.375 10.728a2.191 2.191 0 0 0-.252 2.409 2.218 2.218 0 0 0 2.125 1.224l23.006-1.3a3.18 3.18 0 0 0 2.925-3.877c-1.187-5.243-2.215-8.64-2.822-9.321a.728.728 0 0 0-.583-.253c-1.16 0-7.73.147-10.485.3" style="fill:#f7f7f7"/>
                        <path data-name="Path 771" d="M305.078 380.419a2.749 2.749 0 0 0-.539.085c-2.462.638-9.038 5.4-13.375 10.728a2.191 2.191 0 0 0-.252 2.409 2.218 2.218 0 0 0 2.125 1.224l23.006-1.3a3.18 3.18 0 0 0 2.925-3.877c-1.187-5.243-2.215-8.64-2.822-9.321a.728.728 0 0 0-.583-.253c-1.163.006-7.73.15-10.485.305z" style="stroke:#1f212b;stroke-width:1.5px;stroke-miterlimit:10;fill:none"/>
                        <path data-name="Path 772" d="m364.785 362.654 11.884 28.3 7.768-.253-4.815-29.763z" style="fill:#fff"/>
                        <path data-name="Path 773" d="m365.689 363.182 11.393 27.124 6.619-.216-4.6-28.463z" style="fill:#f7f7f7"/>
                        <path data-name="Path 774" d="m365.689 363.182 11.393 27.124 6.619-.216-4.6-28.463z" style="stroke:#1f212b;stroke-width:1.5px;stroke-miterlimit:10;fill:none"/>
                        <path data-name="Path 775" d="M364.395 367.146c-21.088-44.27-36.42-86.347-40.224-104.414 9.042 81.242-9.435 98.878-9.413 99.859 0 .177-15.853-.512-15.853-.512 5.869 1.075-.511-.22-.571-.493-12.87-59.126-15.862-106.131-13.544-134.455 2.512-30.719 8.155-47.688 8.212-47.856a.63.63 0 0 1 .64-.426l48.35 3.4a.628.628 0 0 1 .509.328 195 195 0 0 1 20.418 58.284l20.858 127.024c.034.187-19.284-.536-19.382-.741" style="fill:#fa389e"/>
                        <path data-name="Path 776" d="M364.395 367.146c-21.088-44.27-36.42-86.347-40.224-104.414 9.042 81.242-9.435 98.878-9.413 99.859 0 .177-15.853-.512-15.853-.512 5.869 1.075-.511-.22-.571-.493-12.87-59.126-15.862-106.131-13.544-134.455 2.512-30.719 8.155-47.688 8.212-47.856a.63.63 0 0 1 .64-.426l48.35 3.4a.628.628 0 0 1 .509.328 195 195 0 0 1 20.418 58.284l20.858 127.024c.034.189-19.284-.534-19.382-.739z" style="stroke-linejoin:round;stroke:#1f212b;stroke-width:1.5px;fill:none"/>
                        <path data-name="Path 777" d="M374.181 384.427a.731.731 0 0 0-.592.231c-.632.658-1.787 4.014-3.17 9.208a3.181 3.181 0 0 0 2.777 3.985l22.941 2.16a2.216 2.216 0 0 0 2.169-1.142 2.19 2.19 0 0 0-.161-2.417c-4.134-5.488-10.526-10.494-12.962-11.224a2.781 2.781 0 0 0-.535-.105c-2.747-.259-9.307-.649-10.467-.7" style="fill:#f7f7f7"/>
                        <path data-name="Path 778" d="M374.181 384.427a.731.731 0 0 0-.592.231c-.632.658-1.787 4.014-3.17 9.208a3.181 3.181 0 0 0 2.777 3.985l22.941 2.16a2.216 2.216 0 0 0 2.169-1.142 2.19 2.19 0 0 0-.161-2.417c-4.134-5.488-10.526-10.494-12.962-11.224a2.781 2.781 0 0 0-.535-.105c-2.748-.259-9.307-.649-10.467-.696z" style="stroke:#1f212b;stroke-width:1.5px;stroke-miterlimit:10;fill:none"/>
                        <path data-name="Path 779" d="M318.946 85.96c-.179.591-1.645 6.988-2.94 12.637-3.25 14.184-3.292 14.252-3.43 14.478-.16.262-.586.957.647 2.046 3.239 2.861 13.856 4.612 17.886 1.4.944-.768.694-7.465.6-9.986-.118-3.157-.118-3.576.28-3.971a.952.952 0 0 1 .684-.267 8.136 8.136 0 0 1 3.028 1 6.072 6.072 0 0 0 3.735.952c2.614-.011 12.177-5 12.581-29.3 0-.046-.008-.092-.006-.138.2-6.01-1.448-10.631-4.912-13.734-6.752-6.05-18.282-4.463-18.4-4.446-5.609 1.281-9.1 7.539-10.262 11.033-2.565 7.687.493 17.614.524 17.713a.881.881 0 0 1-.018.58" style="fill:#f7f7f7"/>
                        <path data-name="Path 780" d="M318.946 85.96c-.179.591-1.645 6.988-2.94 12.637-3.25 14.184-3.292 14.252-3.43 14.478-.16.262-.586.957.647 2.046 3.239 2.861 13.856 4.612 17.886 1.4.944-.768.694-7.465.6-9.986-.118-3.157-.118-3.576.28-3.971a.952.952 0 0 1 .684-.267 8.136 8.136 0 0 1 3.028 1 6.072 6.072 0 0 0 3.735.952c2.614-.011 12.177-5 12.581-29.3 0-.046-.008-.092-.006-.138.2-6.01-1.448-10.631-4.912-13.734-6.752-6.05-18.282-4.463-18.4-4.446-5.609 1.281-9.1 7.539-10.262 11.033-2.565 7.687.493 17.614.524 17.713a.881.881 0 0 1-.015.583zm32.323 6.74z" style="stroke:#1f212b;stroke-width:1.5px;stroke-miterlimit:10;fill:none"/>
                        <path data-name="Path 781" d="M364.323 59.75c-2.307-2.689-5.009-.353-14.785-2.427-8.133-1.726-10.34-4.208-16.627-3.615a17.6 17.6 0 0 0-8.162 2.5c-4.8 3.022-6.823 7.592-7.969 11.026-2.237 6.7-.587 14.815.2 17.9a1.687 1.687 0 0 0 1.664 1.266 43.754 43.754 0 0 0 5.6-.412 1.272 1.272 0 0 0 1.038-1.655 6.527 6.527 0 0 1-.171-.64c-.618-2.936.964-5.756 3.533-6.3s5.155 1.4 5.776 4.335c.041.2.073.406.1.608 3.816-2.492 5.9-5.47 9.364-6.908a12.282 12.282 0 0 1 4.929-.76c5.841.2 7.539 3.788 10.342 3.312 4.895-.831 9.328-13.4 5.18-18.231"/>
                        <path data-name="Path 782" d="m207.987 92.651 17.194 10.89s8.959 29.327 24.517 32.14 32.577-17.788 32.577-17.788l8.854 22.99s-16.929 22.562-40.9 17.064-28.029-42.361-28.029-42.361a7.851 7.851 0 0 1-7.551-5.579c-1.51-4.892-.545-7.643-.545-7.643s-8.289-5.2-6.118-9.713" style="fill:#fff"/>
                        <path data-name="Path 783" d="M222.244 114.958a.571.571 0 0 1 .1.015.632.632 0 0 1 .481.543c.04.365 4.295 36.483 27.547 41.817 21.882 5.022 38.021-14.037 40.04-16.557l-8.346-21.676c-3.251 3.7-17.046 18.375-30.606 17.431a17.567 17.567 0 0 1-1.874-.233c-15.205-2.75-24.009-29.407-24.937-32.352l-16.326-10.34c-.643 3.172 4.091 6.954 6.116 8.223a.629.629 0 0 1 .259.741c-.008.023-.866 2.652.553 7.249a7.266 7.266 0 0 0 6.876 5.14.571.571 0 0 1 .117 0" style="fill:#f7f7f7"/>
                        <path data-name="Path 784" d="M222.244 114.958a.571.571 0 0 1 .1.015.632.632 0 0 1 .481.543c.04.365 4.295 36.483 27.547 41.817 21.882 5.022 38.021-14.037 40.04-16.557l-8.346-21.676c-3.251 3.7-17.046 18.375-30.606 17.431a17.567 17.567 0 0 1-1.874-.233c-15.205-2.75-24.009-29.407-24.937-32.352l-16.326-10.34c-.643 3.172 4.091 6.954 6.116 8.223a.629.629 0 0 1 .259.741c-.008.023-.866 2.652.553 7.249a7.266 7.266 0 0 0 6.876 5.14.572.572 0 0 1 .117 0z" style="stroke:#1f212b;stroke-width:1.5px;stroke-miterlimit:10;fill:none"/>
                        <path data-name="Path 785" d="M222.879 113.209a.628.628 0 0 1-.183-.041c-.148-.057-3.64-1.439-3.855-4.616a5.4 5.4 0 0 0-1.4-3.106 4.894 4.894 0 0 1-1.2-3.586l.049-.692a.628.628 0 0 1 .9-.522l5.858 2.822a.629.629 0 1 1-.546 1.134l-5.015-2.417a3.635 3.635 0 0 0 .9 2.433 6.647 6.647 0 0 1 1.712 3.849c.162 2.385 3.024 3.516 3.053 3.528a.629.629 0 0 1-.27 1.214"/>
                        <path data-name="Path 786" d="M341.766 145.738s9.289 25.552 26.9 31.867 31.192-8.11 32.213-23.908l-5.966-2.451s-7.395 15.748-21.08 10.562-17.874-38.56-17.874-38.56z" style="fill:#fff"/>
                        <path data-name="Path 787" d="M342.466 145.808c1.087 2.811 10.279 25.419 26.414 31.205 8.866 3.179 15.543.684 19.583-1.968 6.59-4.327 11.067-12.319 11.757-20.94l-5.011-2.058c-1.494 2.763-9.007 15.119-21.6 10.349-12.232-4.636-16.965-30.377-18.034-37.364z" style="fill:#fff"/>
                        <path data-name="Path 788" d="M342.466 145.808c1.087 2.811 10.279 25.419 26.414 31.205 8.866 3.179 15.543.684 19.583-1.968 6.59-4.327 11.067-12.319 11.757-20.94l-5.011-2.058c-1.494 2.763-9.007 15.119-21.6 10.349-12.232-4.636-16.965-30.377-18.034-37.364z" style="stroke:#1f212b;stroke-width:1.5px;stroke-miterlimit:10;fill:none"/>
                        <path data-name="Path 789" d="M275.476 226.482c-3.374-1.03-1.966-32.7 1.211-57.956 1.342-10.671 0-14.346 1.179-16.906 1.377-3-15.553-15.283-17.135-18.183 0 0 15.463-16.476 15.638-16.675.463-.524 10.837-11.879 36.812-9.8 2.167.173 3.5 6.309 9.8 6.748 7.044.491 6.472-4.18 8.39-3.889 19.982 3.037 34.192 23.689 34.1 23.841L354.136 154.1c-1.662 2.849-5.035-11.394-4.55-8.131 0 0 6.025 47.872 16.935 74.114 0 0-73.027 11.9-91.046 6.391" style="fill:#f7f7f7"/>
                        <path data-name="Path 790" d="M275.476 226.482c-3.374-1.03-1.966-32.7 1.211-57.956 1.342-10.671 0-14.346 1.179-16.906 1.377-3-15.553-15.283-17.135-18.183 0 0 15.463-16.476 15.638-16.675.463-.524 10.837-11.879 36.812-9.8 2.167.173 3.5 6.309 9.8 6.748 7.044.491 6.472-4.18 8.39-3.889 19.982 3.037 34.192 23.689 34.1 23.841L354.136 154.1c-1.662 2.849-5.035-11.394-4.55-8.131 0 0 6.025 47.872 16.935 74.114.001.008-73.026 11.903-91.045 6.399z" style="stroke:#1f212b;stroke-width:1.5px;stroke-miterlimit:10;fill:none"/>
                        <path data-name="Path 791" d="m390.366 170.131-44.607-1.3a1.929 1.929 0 0 1-1.435-3.047l32.476-50.633a3.036 3.036 0 0 1 2.682-1.263l44.893 4.162z"/>
                        <path data-name="Path 792" d="M393.444 172.151 345.43 168.8l35.47-54.814 48.014 3.348z" style="fill:#fff"/>
                        <path data-name="Path 793" d="m393.4 172.779-48.014-3.349a.629.629 0 0 1-.484-.969l35.468-54.817a.629.629 0 0 1 .572-.286l48.014 3.349a.628.628 0 0 1 .484.969l-35.468 54.817a.631.631 0 0 1-.572.286m-46.863-4.53 46.581 3.249 34.687-53.61-46.581-3.249z"/>
                        <path data-name="Path 794" d="M394.674 170.431s-.573-4.791.55-7.882 7.371-12.082 9.106-13.934 1.63 19.2-9.656 21.816" style="fill:#fff"/>
                        <path data-name="Path 795" d="M395.232 170.376a.749.749 0 0 1-.748-.7 19.2 19.2 0 0 1 .625-7.173c1.042-2.87 6.551-10.912 8.71-13.493a.748.748 0 0 1 .575-.269.713.713 0 0 1 .188.024.747.747 0 0 1 .548.582c.351 1.8.182 7.294-1.806 12.418-1.224 3.156-3.58 7.205-7.864 8.57a.747.747 0 0 1-.228.036" style="fill:#fff"/>
                        <path data-name="Path 796" d="M404.394 149.5c.337 1.724.159 7.032-1.769 12-1.185 3.056-3.416 6.859-7.393 8.127a18.8 18.8 0 0 1 .582-6.862c1-2.739 6.447-10.718 8.58-13.268m0-1.5a1.5 1.5 0 0 0-1.151.538c-2.187 2.614-7.774 10.785-8.839 13.718a19.941 19.941 0 0 0-.668 7.484 1.5 1.5 0 0 0 1.956 1.319c4.564-1.455 7.052-5.7 8.336-9.014 1.973-5.087 2.265-10.664 1.842-12.832a1.5 1.5 0 0 0-1.1-1.166 1.545 1.545 0 0 0-.37-.044" style="fill:#1f212b"/>
                        <path data-name="Path 797" d="M108.685 218.981a.8.8 0 0 1-.806-.942l1.5-10.53a1.125 1.125 0 0 1 1.074-.943.8.8 0 0 1 .8.943l-1.5 10.53a1.123 1.123 0 0 1-1.075.942"/>
                        <path data-name="Path 798" d="M114.181 227.558a.8.8 0 0 1-.808-.942l3.929-27.683a1.122 1.122 0 0 1 1.072-.943.8.8 0 0 1 .8.943l-3.922 27.683a1.123 1.123 0 0 1-1.075.942"/>
                        <path data-name="Path 799" d="M121.319 224.585a.8.8 0 0 1-.808-.941l3.065-21.74a1.122 1.122 0 0 1 1.071-.942.8.8 0 0 1 .8.942l-3.059 21.74a1.122 1.122 0 0 1-1.074.941"/>
                        <path data-name="Path 800" d="M128.821 218.981a.8.8 0 0 1-.808-.942l1.475-10.53a1.12 1.12 0 0 1 1.071-.943.8.8 0 0 1 .807.943l-1.473 10.53a1.119 1.119 0 0 1-1.072.942"/>
                        <path data-name="Path 801" d="M133.493 233.774a.8.8 0 0 1-.811-.942l5.583-40.116a1.116 1.116 0 0 1 1.068-.942.8.8 0 0 1 .806.942l-5.573 40.116a1.119 1.119 0 0 1-1.073.942"/>
                        <path data-name="Path 802" d="M141.363 225.486a.8.8 0 0 1-.811-.942L143.807 201a1.116 1.116 0 0 1 1.068-.942.8.8 0 0 1 .808.942l-3.249 23.54a1.118 1.118 0 0 1-1.071.942"/>
                        <path data-name="Path 803" d="M148.437 222.649a.8.8 0 0 1-.811-.942l2.454-17.867a1.114 1.114 0 0 1 1.067-.942.8.8 0 0 1 .809.942l-2.449 17.867a1.116 1.116 0 0 1-1.07.942"/>
                        <path data-name="Path 804" d="M155.72 218.981a.8.8 0 0 1-.812-.942l1.437-10.53a1.114 1.114 0 0 1 1.067-.943.8.8 0 0 1 .811.943l-1.434 10.53a1.115 1.115 0 0 1-1.069.942"/>
                        <path data-name="Path 805" d="M161.9 222.649a.8.8 0 0 1-.813-.942l2.421-17.867a1.112 1.112 0 0 1 1.066-.942.8.8 0 0 1 .811.942l-2.417 17.867a1.113 1.113 0 0 1-1.068.942"/>
                        <path data-name="Path 806" d="M168.236 225.486a.8.8 0 0 1-.814-.942L170.59 201a1.111 1.111 0 0 1 1.065-.942.8.8 0 0 1 .811.942l-3.166 23.54a1.113 1.113 0 0 1-1.068.942"/>
                        <path data-name="Path 807" d="M173.863 233.774a.806.806 0 0 1-.816-.942l5.363-40.116a1.107 1.107 0 0 1 1.062-.942.8.8 0 0 1 .811.942l-5.352 40.116a1.111 1.111 0 0 1-1.068.942"/>
                        <path data-name="Path 808" d="M181.807 224.585a.806.806 0 0 1-.816-.941l2.886-21.74a1.109 1.109 0 0 1 1.063-.942.807.807 0 0 1 .814.942l-2.881 21.74a1.11 1.11 0 0 1-1.066.941"/>
                        <path data-name="Path 809" d="M189.263 218.981a.807.807 0 0 1-.816-.942l1.388-10.53a1.109 1.109 0 0 1 1.063-.943.808.808 0 0 1 .815.943l-1.386 10.53a1.107 1.107 0 0 1-1.064.942"/>
                        <path data-name="Path 810" d="M195.975 218.981a.808.808 0 0 1-.817-.942l1.379-10.53a1.107 1.107 0 0 1 1.062-.943.809.809 0 0 1 .816.943l-1.377 10.53a1.106 1.106 0 0 1-1.063.942"/>
                        <path data-name="Path 811" d="M69.841 288.611a.95.95 0 0 1-.757-.243l4.523-36.388a1.4 1.4 0 0 1 .788-.206.914.914 0 0 1 .739.243l-2.151 17.413h3.5l.156-.425c1.27-3.478 6.055-14.823 14.628-14.823s9.572 11.3 9.682 14.767l.015.481h21.686l.132-.447c1.021-3.473 5-14.8 13.547-14.8 8.565 0 10.394 11.321 10.756 14.79l.048.458h2.425a.977.977 0 0 1 .76.243 2.172 2.172 0 0 1-.79.169h-25.655l-.143.425c-1.173 3.478-5.7 14.823-14.409 14.823-8.728 0-9.8-11.3-9.917-14.768l-.016-.48H72.932L70.671 288.2h77.458a.992.992 0 0 1 .768.243 2.222 2.222 0 0 1-.8.169zm31.106-18.136c.16 4.567 1.809 12.657 6.945 14.01l.693.182.131-1.308a1.432 1.432 0 0 1 .8-.2.97.97 0 0 1 .761.243l-.063.557-.071.711.722-.171c5.559-1.318 9.69-9.4 11.247-13.963l.235-.689h-10.73l-.131 1.319a1.409 1.409 0 0 1-.792.206.959.959 0 0 1-.755-.243l.136-1.282h-9.147zm34.072-2.57a.966.966 0 0 1 .756.243l-.115 1.282h9.94l-.07-.657c-.493-4.642-2.713-12.82-7.943-14.028l-.669-.155-.112 1.323a1.373 1.373 0 0 1-.781.205.953.953 0 0 1-.751-.243l.051-.519.063-.734-.726.2c-5.31 1.453-8.956 9.448-10.279 13.944l-.2.666h9.933l.113-1.319a1.39 1.39 0 0 1 .788-.206m-45.3 0a.941.941 0 0 1 .749.243l-.151 1.282h9.115l-.019-.632c-.14-4.567-1.714-12.657-6.746-14.011l-.678-.183-.147 1.309a1.41 1.41 0 0 1-.788.205.934.934 0 0 1-.744-.242l.071-.558.08-.711-.711.171c-5.489 1.316-9.792 9.4-11.476 13.962l-.255.69h10.761l.149-1.319a1.423 1.423 0 0 1 .794-.206m20 13.22a.962.962 0 0 1-.759-.243l.248-2.4a1.422 1.422 0 0 1 .8-.206.969.969 0 0 1 .758.243l-.246 2.4a1.431 1.431 0 0 1-.8.2m.516-4.962a1.258 1.258 0 0 1-.8-.193l.259-2.369a1.4 1.4 0 0 1 .793-.206.958.958 0 0 1 .756.243l-.246 2.4a2.454 2.454 0 0 1-.766.123m24.959-10.286a.962.962 0 0 1-.756-.243l.213-2.4a1.375 1.375 0 0 1 .786-.206.962.962 0 0 1 .754.243l-.211 2.4a1.375 1.375 0 0 1-.786.206m-45.242 0a.937.937 0 0 1-.749-.243l.28-2.4a1.4 1.4 0 0 1 .791-.206.933.933 0 0 1 .747.243l-.277 2.4a1.407 1.407 0 0 1-.792.206m45.684-4.962a1.26 1.26 0 0 1-.791-.192l.224-2.371a1.379 1.379 0 0 1 .783-.2.961.961 0 0 1 .752.242l-.211 2.4a2.385 2.385 0 0 1-.757.123m-45.1 0a1.233 1.233 0 0 1-.785-.192l.29-2.371a1.407 1.407 0 0 1 .788-.2.93.93 0 0 1 .745.243l-.277 2.4a2.432 2.432 0 0 1-.761.123"/>
                    </g>
                </g>
                <g data-name="Group 208">
                    <g data-name="Group 207" style="clip-path:url(#wcq0n6j6kf)">
                        <path data-name="Path 812" d="M169.265 257.039z" style="fill:#fff"/>
                    </g>
                </g>
                <g data-name="Group 210">
                    <g data-name="Group 209" style="clip-path:url(#m2nfp56t7e)">
                        <path data-name="Line 66" transform="translate(169.264 257.039)" style="stroke:#1f212b;stroke-width:1.5px;stroke-miterlimit:10;fill:none" d="M0 0h46.617"/>
                    </g>
                </g>
                <g data-name="Group 212">
                    <g data-name="Group 211" style="clip-path:url(#jicyuik9gg)">
                        <path data-name="Path 814" d="M168 266.408z" style="fill:#fff"/>
                    </g>
                </g>
                <g data-name="Group 214">
                    <g data-name="Group 213" style="clip-path:url(#m2nfp56t7e)">
                        <path data-name="Line 67" transform="translate(167.999 266.408)" style="stroke:#1f212b;stroke-width:1.5px;stroke-miterlimit:10;fill:none" d="M0 0h47.061"/>
                    </g>
                </g>
                <g data-name="Group 216">
                    <g data-name="Group 215" style="clip-path:url(#mzsgd749ph)">
                        <path data-name="Path 816" d="M166.734 275.777z" style="fill:#fff"/>
                    </g>
                </g>
                <g data-name="Group 218">
                    <g data-name="Group 217" style="clip-path:url(#m2nfp56t7e)">
                        <path data-name="Line 68" transform="translate(166.734 275.778)" style="stroke:#1f212b;stroke-width:1.5px;stroke-miterlimit:10;fill:none" d="M0 0h47.504"/>
                    </g>
                </g>
                <g data-name="Group 220">
                    <g data-name="Group 219" style="clip-path:url(#hzy5sjv62i)">
                        <path data-name="Path 818" d="M165.469 285.147z" style="fill:#fff"/>
                    </g>
                </g>
                <g data-name="Group 228">
                    <g data-name="Group 227" style="clip-path:url(#m2nfp56t7e)">
                        <path data-name="Line 69" transform="translate(165.469 285.147)" style="stroke:#1f212b;stroke-width:1.5px;stroke-miterlimit:10;fill:none" d="M0 0h47.948"/>
                        <g data-name="Group 223" style="opacity:.12">
                            <g data-name="Group 222">
                                <g data-name="Group 221" style="clip-path:url(#182zlqccij)">
                                    <path data-name="Path 820" d="M334.343 224.585s24.921 30.19 40.268 143.1c5.653.093 9.167.2 9.167.2L359.06 221.243z"/>
                                </g>
                            </g>
                        </g>
                        <g data-name="Group 226" style="opacity:.12">
                            <g data-name="Group 225">
                                <g data-name="Group 224" style="clip-path:url(#y9apulp8xk)">
                                    <path data-name="Path 821" d="m323.264 265.774-14.513 96.7 6.007.119s13.016-19.235 11.761-68.026-3.255-28.791-3.255-28.791"/>
                                </g>
                            </g>
                        </g>
                    </g>
                </g>
            </g>
        </g>
    </g>
</svg>
